<?xml version="1.0" encoding="utf-8"?>
<!-- Generator: Adobe Illustrator 16.0.0, SVG Export Plug-In . SVG Version: 6.00 Build 0)  -->
<!DOCTYPE svg PUBLIC "-//W3C//DTD SVG 1.1//EN" "http://www.w3.org/Graphics/SVG/1.1/DTD/svg11.dtd">
<svg version="1.1" id="Calque_1" xmlns="http://www.w3.org/2000/svg" xmlns:xlink="http://www.w3.org/1999/xlink" x="0px" y="0px"
	 width="20px" height="20px" viewBox="0 0 20 20" enable-background="new 0 0 20 20" xml:space="preserve">
<circle cx="10" cy="10" r="10"/>
<g>
	<path fill="#F9F4F4" d="M0.64,16.426c0.125-0.568,0.297-1.203,0.521-1.898c0.223-0.697,0.48-1.424,0.772-2.181
		c0.292-0.759,0.613-1.527,0.963-2.307c0.35-0.78,0.715-1.539,1.092-2.278c0.377-0.738,0.764-1.436,1.16-2.091
		c0.397-0.656,0.789-1.243,1.176-1.76c0.111-0.142,0.25-0.319,0.418-0.53C6.91,3.172,7.097,2.955,7.303,2.73
		c0.207-0.225,0.423-0.447,0.65-0.669c0.226-0.223,0.454-0.421,0.683-0.597c0.23-0.176,0.453-0.318,0.669-0.427
		c0.216-0.108,0.417-0.163,0.6-0.163c0.25,0,0.477,0.05,0.684,0.146c0.206,0.099,0.384,0.236,0.53,0.417
		c0.148,0.18,0.263,0.395,0.345,0.646c0.083,0.251,0.124,0.527,0.124,0.826c0,0.128-0.008,0.256-0.024,0.383
		c-0.017,0.128-0.038,0.258-0.064,0.394l-1.091,6.275c0.097-0.172,0.235-0.406,0.411-0.703c0.178-0.295,0.378-0.626,0.602-0.99
		c0.223-0.363,0.456-0.741,0.696-1.136c0.243-0.393,0.481-0.774,0.715-1.142c0.232-0.367,0.448-0.703,0.644-1.006
		c0.196-0.303,0.358-0.55,0.483-0.736l0.176-0.26c0.119-0.171,0.261-0.374,0.432-0.607c0.173-0.232,0.359-0.475,0.567-0.73
		c0.206-0.254,0.425-0.505,0.652-0.753c0.232-0.248,0.463-0.467,0.7-0.664c0.234-0.195,0.469-0.354,0.7-0.477
		c0.228-0.124,0.447-0.186,0.657-0.186c0.156,0,0.288,0.041,0.395,0.123c0.104,0.083,0.188,0.193,0.254,0.332
		c0.065,0.14,0.112,0.303,0.139,0.491c0.027,0.186,0.04,0.381,0.04,0.583c0,0.317-0.024,0.634-0.07,0.957
		c-0.044,0.322-0.098,0.615-0.157,0.877c-0.032,0.209-0.077,0.508-0.134,0.898c-0.055,0.39-0.121,0.839-0.195,1.345
		c-0.075,0.506-0.156,1.054-0.241,1.642c-0.085,0.587-0.17,1.186-0.261,1.794c-0.087,0.607-0.176,1.206-0.266,1.798
		c-0.088,0.594-0.17,1.147-0.245,1.661c-0.076,0.512-0.146,0.972-0.208,1.375c-0.063,0.406-0.112,0.721-0.15,0.945
		c-0.022,0.104-0.051,0.247-0.095,0.429c-0.043,0.178-0.105,0.354-0.186,0.528c-0.081,0.172-0.192,0.321-0.327,0.449
		c-0.132,0.129-0.297,0.19-0.494,0.19c-0.106,0-0.206-0.04-0.302-0.117c-0.096-0.078-0.18-0.179-0.256-0.298
		c-0.072-0.12-0.135-0.248-0.174-0.389c-0.046-0.139-0.071-0.263-0.077-0.377l2.045-11.11C16.9,4.594,16.915,4.5,16.93,4.417
		c0.014-0.082,0.02-0.161,0.02-0.236c0-0.083-0.009-0.158-0.022-0.225c-0.021-0.068-0.033-0.132-0.049-0.192
		c-0.018-0.066-0.037-0.126-0.06-0.179c-0.293,0.254-0.607,0.578-0.947,0.972c-0.336,0.394-0.677,0.833-1.021,1.315
		c-0.346,0.485-0.69,0.998-1.034,1.542c-0.343,0.543-0.67,1.089-0.978,1.636c-0.243,0.427-0.505,0.878-0.782,1.352
		c-0.281,0.472-0.561,0.944-0.842,1.421c-0.282,0.476-0.556,0.951-0.822,1.429c-0.264,0.474-0.505,0.931-0.722,1.367
		c-0.106,0.207-0.214,0.477-0.325,0.81c-0.111,0.328-0.235,0.648-0.37,0.964c-0.134,0.317-0.278,0.586-0.432,0.811
		c-0.154,0.226-0.33,0.338-0.526,0.338c-0.151,0-0.277-0.028-0.379-0.078c-0.102-0.053-0.182-0.12-0.241-0.208
		c-0.06-0.085-0.103-0.188-0.129-0.306C7.242,16.834,7.23,16.71,7.23,16.574c0-0.173,0.015-0.345,0.044-0.518
		c0.029-0.175,0.06-0.339,0.093-0.495c0.138-0.66,0.281-1.317,0.434-1.969c0.15-0.65,0.306-1.32,0.466-2.003
		c0.162-0.683,0.327-1.387,0.497-2.117c0.17-0.732,0.345-1.509,0.522-2.334c0.045-0.232,0.098-0.492,0.157-0.781
		c0.059-0.29,0.114-0.582,0.167-0.878c0.053-0.296,0.095-0.583,0.128-0.861c0.032-0.276,0.05-0.524,0.05-0.741
		c0-0.195-0.014-0.35-0.04-0.466C9.722,3.294,9.672,3.236,9.601,3.236c-0.243,0-0.499,0.104-0.769,0.31
		C8.565,3.751,8.292,4.023,8.017,4.361C7.741,4.699,7.469,5.083,7.2,5.519C6.932,5.954,6.676,6.401,6.433,6.863
		c-0.244,0.46-0.469,0.916-0.679,1.366C5.545,8.678,5.363,9.083,5.213,9.444C5.181,9.518,5.132,9.623,5.071,9.753
		c-0.062,0.131-0.145,0.314-0.245,0.551c-0.103,0.236-0.227,0.54-0.375,0.904c-0.147,0.367-0.321,0.835-0.521,1.396
		c-0.201,0.56-0.432,1.233-0.694,2.015c-0.262,0.778-0.557,1.691-0.885,2.743c-0.059,0.179-0.163,0.325-0.31,0.438
		c-0.147,0.112-0.3,0.168-0.458,0.168c-0.34,0-0.591-0.105-0.751-0.315c-0.162-0.21-0.242-0.468-0.242-0.776
		C0.59,16.743,0.606,16.593,0.64,16.426z"/>
</g>
</svg>
